<svg xmlns="http://www.w3.org/2000/svg" viewBox="0 0 313 313"><defs><style>.cls-1{fill:#333;}.cls-2{fill:#9fcc3b;}.cls-3{fill:#fff;}.cls-4{fill:#fd0;}</style></defs><title>favicon</title><g id="Layer_2" data-name="Layer 2"><g id="Layer_1-2" data-name="Layer 1"><rect class="cls-1" width="313" height="313" rx="12"/><path class="cls-2" d="M143.76,194.65a.14.14,0,0,0,0,.06v0s0,.07,0,0l.4-.78a8.89,8.89,0,0,0,.44-1l.45-1,.9-2.24.87-2.33c1.15-3.14,2.26-6.36,3.32-9.62,2.12-6.52,4.1-13.13,6-19.78q5.64-20,10-40.34c2.86-13.57,5.32-27.24,6.86-41,.77-6.9,1.34-13.82,1.5-20.77A119.06,119.06,0,0,0,173.32,35a120.69,120.69,0,0,1,3.54,20.74c.64,7,.86,14.06.87,21.11,0,14.09-.88,28.17-2.21,42.21s-3.19,28-5.47,42c-1.14,7-2.39,13.95-3.82,20.94-.71,3.49-1.48,7-2.34,10.54l-.67,2.68-.75,2.73-.44,1.43c-.16.5-.26.92-.48,1.49l-.6,1.64c0,.1-.16.36-.25.56l-.3.61c-.2.41-.41.81-.63,1.21Z"/><path class="cls-2" d="M173.79,92.33c13-5.69,19.78-21,18.94-35.13S184.79,30,176.38,18.61c-6.08,11.85-12.25,24-14.11,37.19S163.66,83.68,173.79,92.33Z"/><path class="cls-2" d="M170.75,122.18c10.89,9,27.63,8.28,39.9,1.2s20.74-19.27,27.18-31.89c-13.32-.13-26.94-.22-39.57,4S174,109.24,170.75,122.18Z"/><path class="cls-2" d="M172.73,121.29c-10.82,9.15-27.56,8.53-39.89,1.56s-20.92-19.09-27.47-31.65c13.33-.25,26.94-.46,39.61,3.68S169.41,108.39,172.73,121.29Z"/><path class="cls-3" d="M208.09,232.64c-.74-1.12-2.6,3.72-3.53,5.21a56.38,56.38,0,0,1-5.58,7.62c-1.86,1.86-4.65,4.65-6.88,5.77-2.23.93-1.3,1.86.74,1.86s5.58-2.79,6.51-3.72c1.12-.93,3.53-4.65,5-7.07C205.86,239.71,209.21,234.31,208.09,232.64Z"/><rect class="cls-4" x="94.47" y="189.8" width="105.21" height="44.31" transform="translate(-2.79 1.96) rotate(-0.76)"/><path class="cls-4" d="M117.08,260.34l61.26-.81A22,22,0,0,0,200,238l-105.13,1.4A22,22,0,0,0,117.08,260.34Z"/><path class="cls-3" d="M199.93,254.49c2.59-1.47,6.47-7,8.14-10A94.36,94.36,0,0,0,214,233.29a17,17,0,0,1,3.15-5.35c1.11-1.29,1.11-2.95-.55-1.66-3,2.21-6.85,10.88-8.14,14.2-1.3,3.5-5.56,8.3-7.4,10.32S197.35,256,199.93,254.49Z"/><path class="cls-3" d="M95.72,228.07c1.53-.26,3.1-.45,4.73-.57A26.25,26.25,0,0,0,95.72,228.07Z"/><path class="cls-3" d="M119.94,288.9c10.52,3.71,30.63,6,38,5.41s33.42-7.14,46.73-18.38S228.74,242,230.22,238.5s3.34-10.52,0-12.55-8.49.91-10.71,3.67c-2,2.77-6.85,13.1-9.44,17.71a89.7,89.7,0,0,1-7.59,10.14c5,1.85,7.18,9.24,2.38,13.47s-17.18,7.18-27.33,7.71-22-2.62-34.14-5.22c-12.18-2.79-17.91,0-16.8-.58a34.92,34.92,0,0,1,20.86-1.44c10.89,2.41,24.18,5,38.39,3.38,14.4-1.64,19-7.54,19-9.94,0-2.21-2.39-6.28-10.14-7.77-7.94-1.48-21.41,0-27.32-2.07-6.08-1.85-24.71-12.22-30.61-15.92-6.09-3.7-19.36-12.4-35.24-11.69-.39,0-.75.07-1.13.1-1.63.12-3.2.31-4.73.57a26.1,26.1,0,0,0-5.2,49.29Z"/></g></g></svg>