<svg xmlns="http://www.w3.org/2000/svg" xmlns:xlink="http://www.w3.org/1999/xlink" viewBox="0 0 264.68 172.66"><defs><style>.cls-1{fill:url(#radial-gradient);}.cls-2{fill:#a67c52;}.cls-3{fill:#fd0;}</style><radialGradient id="radial-gradient" cx="127.54" cy="112.38" r="50" gradientTransform="translate(-119.89 127.2) scale(1.94 0.28)" gradientUnits="userSpaceOnUse"><stop offset="0" stop-opacity="0.6"/><stop offset="1" stop-color="#fff" stop-opacity="0"/></radialGradient></defs><title>404</title><g id="Layer_2" data-name="Layer 2"><g id="Layer_1-2" data-name="Layer 1"><ellipse class="cls-1" cx="127.54" cy="158.66" rx="97" ry="14"/><path class="cls-2" d="M74.24,159.89c-6.25-8-21.92-12.37-36.11-12.09s-27,4.41-38.13,9.34C12.17,161,24.63,165,38,166.32S66,165.92,74.24,159.89Z"/><path class="cls-2" d="M225.81,15.34c-10.05,5.38-16.27,20.47-16.75,34.57s3.77,27.23,9.11,38.77C223.6,77,229.11,65.06,231.51,52S232.64,24.18,225.81,15.34Z"/><path class="cls-2" d="M183.49,162.54c6.41-7.63,23.34-13,38.9-14.22s29.83,1.14,42.29,4.34c-13.12,4.64-26.55,9.36-41.1,11.87S192.9,167,183.49,162.54Z"/><path class="cls-2" d="M125,102.59a246.51,246.51,0,0,1,2.44-24.66l.45-3.07.59-3.06c.4-2,.75-4.08,1.21-6.11l1.47-6.06c.48-2,1.15-4,1.72-6a115.08,115.08,0,0,1,9.78-23.15A70.43,70.43,0,0,1,158.85,10.8,47,47,0,0,1,182.13.37,51,51,0,0,1,206.9,3.65a77.73,77.73,0,0,1,20.85,12.7,121.5,121.5,0,0,1,16.79,17.31,119.92,119.92,0,0,0-17.93-15.82A74.72,74.72,0,0,0,205.67,7.2a46.07,46.07,0,0,0-22.58-1.28,40.3,40.3,0,0,0-19.3,10.52A62.18,62.18,0,0,0,151,34.81a105.3,105.3,0,0,0-7.21,21.7c-.38,1.89-.85,3.75-1.15,5.66l-.92,5.71c-.28,1.91-.45,3.85-.68,5.76l-.32,2.88-.2,2.91a232,232,0,0,0-.48,23.3Z"/><rect class="cls-3" x="74.25" y="94.73" width="105.21" height="44.31" transform="translate(-1.54 1.69) rotate(-0.76)"/><path class="cls-3" d="M96.86,165.27l61.26-.81a22,22,0,0,0,21.66-21.52l-105.13,1.4A22,22,0,0,0,96.86,165.27Z"/></g></g></svg>