<svg xmlns="http://www.w3.org/2000/svg" width="30" height="30" viewBox="0 0 30 30"><defs><style>.a{fill:#32373d;}</style></defs><path class="a" d="M9.333,12V22.509H22.667V12c0-3.316-2.985-6-6.667-6S9.333,8.685,9.333,12ZM12.717,3.49A2.893,2.893,0,0,1,14.192.5a3.645,3.645,0,0,1,3.633,0A2.893,2.893,0,0,1,19.3,3.49,9.122,9.122,0,0,1,26,12v9.007l5,3v1.5H1v-1.5l5-3V12A9.125,9.125,0,0,1,12.717,3.49Zm6.617,23.522a3.181,3.181,0,0,1-3.333,3,3.181,3.181,0,0,1-3.333-3Z" transform="translate(-1 -0.015)"/></svg>