<svg xmlns="http://www.w3.org/2000/svg" width="193.126" height="70" viewBox="0 0 193.126 70"><defs><style>.a{fill:#9fcc3b;}.b{fill:#fd0;}</style></defs><path d="M18.817,44.85c8.125.129,10.949,5.432,10.221,10.648-.9,6.5-7.183,10.18-12.873,10.648-2.575.172-5,.172-7.057.216L7.185,80.046H0L4.961,44.889ZM16.85,59.782c2.652-.34,4.4-1.8,4.747-4.148.342-2.523-.471-3.764-3.422-4.148a50.2,50.2,0,0,0-6.928-.386L9.961,60.125a60.656,60.656,0,0,0,6.889-.35Z" transform="translate(0 -33.626)"/><path d="M126.066,84.548a11.117,11.117,0,0,1,11.119,12.7c-.94,6.671-7.654,12.7-14.675,12.7a11.156,11.156,0,0,1-11.2-12.7C112.246,90.58,119.1,84.548,126.066,84.548Zm-2.693,19.031a7.026,7.026,0,0,0,6.8-6.328c.512-3.676-1.625-6.331-5.046-6.331a7.057,7.057,0,0,0-6.8,6.331C117.815,100.93,119.993,103.623,123.373,103.579Z" transform="translate(-82.573 -63.258)"/><path d="M225.256,87.683a10.37,10.37,0,0,1,7.057-3.293c.772,0,1.455.041,2.06.085,1.583.257,2.575.682,2.994.682l-2.7,6.246a11.168,11.168,0,0,1-1.5-.172,11.557,11.557,0,0,0-4.119-.17c-3.463.471-4.789,3.676-5.046,5.558l-1.8,12.788H215.29l3.465-24.677h6.928Z" transform="translate(-160.743 -63.136)"/><path d="M387.214,109.524H380.33l.342-2.394a11.123,11.123,0,0,1-8.3,2.737c-6.158-.515-10.007-6.114-9.109-12.615s6.372-12.1,12.659-12.615c.469-.041.983-.085,1.581-.085a23.013,23.013,0,0,1,8.6,1.411,6.874,6.874,0,0,1,1.668-.17,22.266,22.266,0,0,1,2.7.641Zm-11.8-5.808c3.419,0,6.114-2.523,6.712-6.328v-.129c.556-3.893-1.545-6.416-4.874-6.459-3.38,0-6.246,2.575-6.8,6.459S371.9,103.716,375.413,103.716Z" transform="translate(-271.177 -63.258)"/><path d="M490.857,84.193h4.619l-3.288,23.361c-1.2,8.426-7.654,11.76-14.675,11.8-4.106,0-8.426-.9-10.223-4.32l4.194-4.49a9.492,9.492,0,0,0,6.969,2.479,6.6,6.6,0,0,0,6.459-4.531,16.748,16.748,0,0,0,.556-2.181,10.807,10.807,0,0,1-6.5,2.266c-.471,0-.986,0-1.455-.044-6.287-.342-10.265-6.071-9.325-12.659.942-6.542,6.544-12.232,12.873-12.659h2.093a11.58,11.58,0,0,1,7.4,2.438,14.623,14.623,0,0,0,.3-1.465ZM480.3,102.328a6.7,6.7,0,0,0,6.328-4.577,10.85,10.85,0,0,0,.384-1.709l.216-1.627a3.86,3.86,0,0,0,.085-.726c-.085-2.394-1.668-4.235-5.175-4.235-3.38,0-6.2,2.526-6.758,6.416s1.4,6.47,4.912,6.47Z" transform="translate(-348.965 -62.409)"/><path d="M599.761,103.025a13.592,13.592,0,0,1-12.275,6.931c-6.328,0-12.059-4.876-10.947-12.7,1.068-7.569,7.739-12.7,14.026-12.7,7.955,0,11.462,5.6,10.18,14.675H583.382a5.046,5.046,0,0,0,4.874,4.876,7.268,7.268,0,0,0,5.988-2.353Zm-5.175-8.5a4.462,4.462,0,0,0-4.662-4.577,6.084,6.084,0,0,0-5.775,4.577Z" transform="translate(-430.763 -63.26)"/><path d="M685.076,87.683a10.37,10.37,0,0,1,7.057-3.293c.772,0,1.455.041,2.06.085,1.583.257,2.575.682,2.994.682l-2.7,6.246a11.168,11.168,0,0,1-1.5-.172,11.557,11.557,0,0,0-4.106-.17c-3.463.471-4.789,3.676-5.046,5.558l-1.8,12.788H675.11l3.465-24.677H685.5Z" transform="translate(-504.061 -63.136)"/><path class="a" d="M312.15,57.48h0l.1-.2a2.678,2.678,0,0,0,.113-.257l.116-.257.232-.577.224-.6c.3-.808.582-1.637.852-2.477.548-1.676,1.058-3.38,1.545-5.092q1.452-5.149,2.574-10.386c.736-3.494,1.367-7.013,1.766-10.556.2-1.774.345-3.558.384-5.345a30.431,30.431,0,0,0-.3-5.363,30.832,30.832,0,0,1,.914,5.34c.165,1.8.219,3.62.224,5.435,0,3.63-.227,7.255-.569,10.867s-.821,7.209-1.408,10.813c-.294,1.8-.615,3.6-.983,5.391-.183.9-.381,1.8-.6,2.714l-.173.69-.193.7-.113.371c-.041.126-.067.234-.124.384l-.157.42a.662.662,0,0,1-.062.144l-.077.157c-.051.106-.108.211-.165.314Z" transform="translate(-232.971 -12.156)"/><path class="a" d="M333.259,18.982c3.347-1.465,5.092-5.406,4.876-9.047s-2.044-7-4.209-9.935c-1.565,3.053-3.156,6.179-3.633,9.575S330.651,16.752,333.259,18.982Z" transform="translate(-246.412)"/><path class="a" d="M339.13,80.75c2.806,2.33,7.113,2.134,10.275.309s5.34-4.961,7-8.21c-3.432-.033-6.951-.057-10.187,1.03S339.956,77.421,339.13,80.75Z" transform="translate(-253.169 -54.391)"/><path class="a" d="M291.1,80.255c-2.783,2.356-7.093,2.2-10.27.4s-5.383-4.915-7.07-8.148c3.429-.064,6.936-.118,10.2.947S290.247,76.931,291.1,80.255Z" transform="translate(-204.369 -54.121)"/><path d="M363.646,213.878c-.19-.286-.669.958-.909,1.341a14.358,14.358,0,0,1-1.437,1.962,8.634,8.634,0,0,1-1.771,1.486c-.574.239-.337.479.191.479a3.6,3.6,0,0,0,1.676-.958,11.217,11.217,0,0,0,1.287-1.82C363.072,215.706,363.934,214.318,363.646,213.878Z" transform="translate(-268.054 -159.783)"/><rect class="b" width="27.086" height="11.408" transform="matrix(1, -0.013, 0.013, 1, 66.495, 43.51)"/><path class="b" d="M268.971,225.156l15.771-.209a5.664,5.664,0,0,0,5.574-5.538l-27.066.358a5.664,5.664,0,0,0,5.721,5.388Z" transform="translate(-196.583 -163.923)"/><path d="M367.371,214.571a8.67,8.67,0,0,0,2.1-2.562,24.294,24.294,0,0,0,1.524-2.9,4.338,4.338,0,0,1,.811-1.377c.286-.332.286-.772-.142-.427-.772.569-1.764,2.8-2.1,3.656a10.556,10.556,0,0,1-1.905,2.657C367.18,214.141,366.7,214.952,367.371,214.571Z" transform="translate(-273.912 -154.843)"/><path d="M264.11,209.037c.394-.064.8-.116,1.215-.147a7,7,0,0,0-1.215.147Z" transform="translate(-197.078 -155.87)"/><path d="M255.03,223.046a33.589,33.589,0,0,0,9.783,1.393c1.9-.139,8.6-1.838,12.028-4.732s6.192-8.733,6.575-9.636.86-2.708,0-3.231-2.188.234-2.76.945c-.515.713-1.764,3.373-2.43,4.559a22.879,22.879,0,0,1-1.951,2.611,2.082,2.082,0,0,1,.613,3.47c-1.236,1.092-4.423,1.846-7.036,1.982s-5.664-.672-8.789-1.344a9.11,9.11,0,0,0-4.325-.149,8.982,8.982,0,0,1,5.37-.371,29.64,29.64,0,0,0,9.884.87c3.707-.422,4.892-1.941,4.892-2.557,0-.572-.615-1.617-2.611-2-2.044-.384-5.512,0-7.034-.535a59.157,59.157,0,0,1-7.881-4.1c-1.568-.953-4.984-3.192-9.073-3.01-.1,0-.193.021-.294.026-.417.031-.821.082-1.215.147a6.719,6.719,0,0,0-1.339,12.69Z" transform="translate(-181.911 -154.459)"/></svg>