<svg xmlns="http://www.w3.org/2000/svg" viewBox="0 0 760.83 275.78"><defs><style>.cls-1{fill:#fff;}.cls-2{fill:#9fcc3b;}.cls-3{fill:#fd0;}</style></defs><title>portager_blanc</title><g id="Layer_2" data-name="Layer 2"><g id="Layer_1-2" data-name="Layer 1"><path class="cls-1" d="M73.09,44.85c31.56.5,42.53,21.1,39.7,41.36-3.48,25.25-27.9,39.54-50,41.36-10,.67-19.43.67-27.41.84l-7.47,53.15H0L19.27,45Zm-7.64,58c10.3-1.32,17.11-7,18.44-16.11,1.33-9.8-1.83-14.62-13.29-16.11a195,195,0,0,0-26.91-1.5l-5,35.05A235.6,235.6,0,0,0,65.45,102.82Z"/><path class="cls-1" d="M168.94,84.55a43.18,43.18,0,0,1,43.19,49.34c-3.65,25.91-29.73,49.34-57,49.34S108,159.8,111.63,133.89,141.87,84.55,168.94,84.55Zm-10.46,73.92c13.29,0,24.42-10.3,26.41-24.58s-6.31-24.59-19.6-24.59c-13.13,0-24.42,10.3-26.41,24.59S145.35,158.64,158.48,158.47Z"/><path class="cls-1" d="M254,97.18c4.32-5.82,16.11-12.3,27.41-12.79,3,0,5.65.16,8,.33,6.15,1,10,2.65,11.63,2.65l-10.47,24.26a43.38,43.38,0,0,1-5.81-.67,44.89,44.89,0,0,0-16-.66c-13.45,1.83-18.6,14.28-19.6,21.59l-7,49.67H215.29l13.46-95.85h26.91Z"/><path class="cls-1" d="M456.66,181.56H429.92l1.33-9.3c-8.47,7.14-18.94,11.63-32.23,10.63-23.92-2-38.87-23.75-35.38-49s24.75-47,49.17-49c1.82-.16,3.82-.33,6.14-.33,9.8-.16,23.93,1.33,33.39,5.48a26.7,26.7,0,0,1,6.48-.66,86.49,86.49,0,0,1,10.47,2.49ZM410.82,159c13.28,0,23.75-9.8,26.07-24.58v-.5c2.16-15.12-6-24.92-18.93-25.09-13.13,0-24.26,10-26.42,25.09S397.19,159,410.82,159Z"/><path class="cls-1" d="M558.83,87h17.94L564,177.74c-4.65,32.73-29.73,45.68-57,45.85-15.95,0-32.73-3.49-39.71-16.78l16.29-17.44c5.64,5.48,14.95,10,27.07,9.63,9.47-.16,21.43-5,25.09-17.6a65.08,65.08,0,0,0,2.16-8.47c-7.31,5.81-15.95,8.47-25.25,8.8-1.83,0-3.83,0-5.65-.17-24.42-1.33-39.87-23.58-36.22-49.17,3.66-25.41,25.42-47.51,50-49.17h8.13c10.64.33,21.27,2.83,28.74,9.47A56.8,56.8,0,0,0,558.83,87Zm-41,70.44c11,0,20.59-6.81,24.58-17.78a42.15,42.15,0,0,0,1.49-6.64l.84-6.32a15,15,0,0,0,.33-2.82c-.33-9.3-6.48-16.45-20.1-16.45-13.13,0-24.09,9.81-26.25,24.92S504.17,157.48,517.8,157.48Z"/><path class="cls-1" d="M667.14,156.31c-7.31,12.63-21.93,26.92-47.68,26.92-24.58,0-46.84-18.94-42.52-49.34,4.15-29.4,30.06-49.34,54.48-49.34,30.9,0,44.52,21.76,39.54,57H603.52c.16,10.46,8.3,17.94,18.93,18.94a28.23,28.23,0,0,0,23.26-9.14Zm-20.1-33c.33-8.64-6.31-17.78-18.11-17.78-11.13,0-19.44,7.81-22.43,17.78Z"/><path class="cls-1" d="M713.82,97.18c4.32-5.82,16.11-12.3,27.41-12.79,3,0,5.65.16,8,.33,6.15,1,10,2.65,11.63,2.65l-10.47,24.26a43.38,43.38,0,0,1-5.81-.67,44.89,44.89,0,0,0-15.95-.66c-13.45,1.83-18.6,14.28-19.6,21.59l-7,49.67H675.11l13.46-95.85h26.91Z"/><path class="cls-2" d="M312.15,176.05a.05.05,0,0,0,0,0s0,0,0,0,0,.06,0,0l.4-.78c.13-.22.29-.64.44-1l.45-1,.9-2.24.87-2.33c1.15-3.14,2.26-6.36,3.31-9.62,2.13-6.51,4.11-13.13,6-19.78q5.64-20,10-40.34c2.86-13.57,5.31-27.24,6.86-41,.76-6.89,1.34-13.82,1.49-20.76a118.21,118.21,0,0,0-1.17-20.83,119.75,119.75,0,0,1,3.55,20.74c.64,7,.85,14.06.87,21.11,0,14.1-.88,28.18-2.21,42.21s-3.19,28-5.47,42c-1.14,7-2.39,14-3.82,20.94-.71,3.49-1.48,7-2.34,10.54l-.67,2.68-.75,2.73-.44,1.44c-.16.49-.26.91-.48,1.49l-.61,1.63c0,.11-.15.36-.24.56l-.3.61c-.2.41-.42.82-.64,1.22Z"/><path class="cls-2" d="M342.18,73.73c13-5.69,19.78-21,18.94-35.14S353.18,11.41,344.77,0c-6.08,11.86-12.26,24-14.11,37.19S332.05,65.07,342.18,73.73Z"/><path class="cls-2" d="M339.13,103.57c10.9,9.05,27.63,8.29,39.91,1.2s20.74-19.27,27.18-31.89c-13.33-.13-27-.22-39.57,4S342.34,90.64,339.13,103.57Z"/><path class="cls-2" d="M341.11,102.69c-10.81,9.15-27.55,8.53-39.89,1.55s-20.91-19.09-27.46-31.65c13.32-.25,26.94-.46,39.61,3.68S337.8,89.78,341.11,102.69Z"/><path class="cls-1" d="M376.48,214c-.74-1.11-2.6,3.72-3.53,5.21a55.77,55.77,0,0,1-5.58,7.62c-1.86,1.86-4.65,4.65-6.88,5.77-2.23.93-1.31,1.86.74,1.86s5.58-2.79,6.51-3.72c1.11-.93,3.53-4.65,5-7.07C374.25,221.1,377.6,215.71,376.48,214Z"/><rect class="cls-3" x="262.86" y="171.19" width="105.21" height="44.31" transform="translate(-2.53 4.19) rotate(-0.76)"/><path class="cls-3" d="M285.47,241.73l61.26-.81a22,22,0,0,0,21.65-21.51L263.25,220.8A22,22,0,0,0,285.47,241.73Z"/><path class="cls-1" d="M368.32,235.88c2.59-1.47,6.47-7,8.14-9.95a94.36,94.36,0,0,0,5.92-11.25,16.85,16.85,0,0,1,3.15-5.35c1.11-1.29,1.11-3-.55-1.66-3,2.21-6.85,10.88-8.15,14.2-1.3,3.51-5.55,8.3-7.4,10.32S365.73,237.36,368.32,235.88Z"/><path class="cls-1" d="M264.11,209.46c1.53-.25,3.1-.45,4.72-.57A27.19,27.19,0,0,0,264.11,209.46Z"/><path class="cls-1" d="M288.33,270.29c10.51,3.71,30.63,5.95,38,5.41s33.42-7.14,46.72-18.38,24.05-33.92,25.54-37.43,3.34-10.52,0-12.55-8.5.91-10.72,3.67c-2,2.77-6.85,13.1-9.44,17.71a88.86,88.86,0,0,1-7.58,10.14c5,1.85,7.18,9.24,2.38,13.48s-17.18,7.17-27.33,7.7-22-2.61-34.14-5.22c-12.18-2.79-17.91,0-16.8-.58a34.89,34.89,0,0,1,20.86-1.44c10.89,2.42,24.17,5,38.39,3.38,14.4-1.64,19-7.54,19-9.93,0-2.22-2.39-6.28-10.14-7.77-7.94-1.49-21.41,0-27.32-2.08-6.09-1.85-24.71-12.22-30.61-15.92-6.09-3.7-19.36-12.4-35.24-11.69-.39,0-.75.08-1.14.1-1.62.12-3.19.32-4.72.57a26.1,26.1,0,0,0-5.2,49.29Z"/></g></g></svg>