<svg xmlns="http://www.w3.org/2000/svg" viewBox="0 0 162.66 275.78"><defs><style>.cls-1{fill:#9fcc3b;}.cls-2{fill:#fd0;}</style></defs><title>portager_icone_noir</title><g id="Layer_2" data-name="Layer 2"><g id="Layer_1-2" data-name="Layer 1"><path class="cls-1" d="M68.59,176.05a.08.08,0,0,0,0,0v0s0,.06,0,0l.4-.78a8.89,8.89,0,0,0,.44-1l.46-1,.89-2.24.87-2.33c1.15-3.14,2.26-6.36,3.32-9.62,2.12-6.51,4.1-13.13,6-19.78q5.64-20,10-40.34c2.86-13.57,5.32-27.24,6.86-41,.77-6.89,1.34-13.82,1.5-20.76a119.17,119.17,0,0,0-1.17-20.83,120.69,120.69,0,0,1,3.54,20.74c.64,7,.86,14.06.87,21.11,0,14.1-.88,28.18-2.21,42.21s-3.18,28-5.47,42c-1.14,7-2.39,14-3.82,20.94-.71,3.49-1.48,7-2.34,10.54l-.67,2.68-.75,2.73-.44,1.44c-.16.49-.26.91-.48,1.49l-.6,1.63c0,.11-.16.36-.25.56l-.3.61c-.2.41-.41.82-.63,1.22Z"/><path class="cls-1" d="M98.62,73.73c13-5.69,19.78-21,18.94-35.14S109.62,11.41,101.21,0C95.13,11.86,89,24,87.1,37.19S88.49,65.07,98.62,73.73Z"/><path class="cls-1" d="M95.58,103.57c10.89,9.05,27.63,8.29,39.9,1.2s20.74-19.27,27.18-31.89c-13.32-.13-26.94-.22-39.57,4S98.78,90.64,95.58,103.57Z"/><path class="cls-1" d="M97.56,102.69c-10.82,9.15-27.56,8.53-39.89,1.55S36.75,85.15,30.2,72.59c13.33-.25,26.94-.46,39.61,3.68S94.24,89.78,97.56,102.69Z"/><path d="M132.92,214c-.74-1.11-2.6,3.72-3.53,5.21a55.77,55.77,0,0,1-5.58,7.62c-1.86,1.86-4.65,4.65-6.88,5.77-2.23.93-1.3,1.86.74,1.86s5.58-2.79,6.51-3.72c1.12-.93,3.54-4.65,5-7.07C130.69,221.1,134,215.71,132.92,214Z"/><rect class="cls-2" x="19.3" y="171.19" width="105.21" height="44.31" transform="translate(-2.55 0.97) rotate(-0.76)"/><path class="cls-2" d="M41.91,241.73l61.26-.81a22,22,0,0,0,21.65-21.51L19.69,220.8A22,22,0,0,0,41.91,241.73Z"/><path d="M124.76,235.88c2.59-1.47,6.47-7,8.14-9.95a94.36,94.36,0,0,0,5.92-11.25,17,17,0,0,1,3.15-5.35c1.11-1.29,1.11-3-.55-1.66-3,2.21-6.85,10.88-8.14,14.2-1.3,3.51-5.56,8.3-7.4,10.32S122.18,237.36,124.76,235.88Z"/><path d="M20.55,209.46c1.53-.25,3.1-.45,4.73-.57A27.18,27.18,0,0,0,20.55,209.46Z"/><path d="M44.77,270.29c10.52,3.71,30.63,5.95,38,5.41s33.42-7.14,46.73-18.38,24-33.92,25.53-37.43,3.34-10.52,0-12.55-8.49.91-10.71,3.67c-2,2.77-6.85,13.1-9.44,17.71a89.7,89.7,0,0,1-7.59,10.14c5,1.85,7.19,9.24,2.38,13.48s-17.18,7.17-27.33,7.7-22-2.61-34.14-5.22c-12.18-2.79-17.91,0-16.8-.58A34.92,34.92,0,0,1,72.3,252.8c10.89,2.42,24.18,5,38.39,3.38,14.4-1.64,19-7.54,19-9.93,0-2.22-2.39-6.28-10.14-7.77-7.94-1.49-21.41,0-27.32-2.08-6.08-1.85-24.71-12.22-30.61-15.92-6.09-3.7-19.36-12.4-35.24-11.69-.39,0-.75.08-1.13.1-1.63.12-3.2.32-4.73.57a26.1,26.1,0,0,0-5.2,49.29Z"/></g></g></svg>